<svg width="48" height="48" viewBox="0 0 48 48" fill="none" xmlns="http://www.w3.org/2000/svg">
<path d="M24.3981 39.8097L23.9547 38.9134L23.9547 38.9134L24.3981 39.8097ZM23.6019 39.8097L24.0453 38.9134L24.0453 38.9134L23.6019 39.8097ZM37 22C37 26.8936 34.3766 30.8205 31.3621 33.7164C28.3515 36.6085 25.0528 38.3702 23.9547 38.9134L24.8415 40.7061C26.0256 40.1203 29.5279 38.2518 32.7477 35.1587C35.9636 32.0692 39 27.6557 39 22H37ZM24 9C31.1797 9 37 14.8203 37 22H39C39 13.7157 32.2843 7 24 7V9ZM11 22C11 14.8203 16.8203 9 24 9V7C15.7157 7 9 13.7157 9 22H11ZM24.0453 38.9134C22.9472 38.3702 19.6485 36.6085 16.6379 33.7164C13.6234 30.8205 11 26.8936 11 22H9C9 27.6557 12.0364 32.0692 15.2523 35.1587C18.4722 38.2518 21.9744 40.1203 23.1585 40.7061L24.0453 38.9134ZM23.9547 38.9134C23.9614 38.9101 23.9776 38.9045 24 38.9045C24.0224 38.9045 24.0386 38.9101 24.0453 38.9134L23.1585 40.7061C23.6932 40.9706 24.3068 40.9706 24.8415 40.7061L23.9547 38.9134ZM29 22C29 24.7614 26.7614 27 24 27V29C27.866 29 31 25.866 31 22H29ZM24 17C26.7614 17 29 19.2386 29 22H31C31 18.134 27.866 15 24 15V17ZM19 22C19 19.2386 21.2386 17 24 17V15C20.134 15 17 18.134 17 22H19ZM24 27C21.2386 27 19 24.7614 19 22H17C17 25.866 20.134 29 24 29V27Z" fill="black"/>
</svg>
