<svg id="Vrstva_1" data-name="Vrstva 1" xmlns="http://www.w3.org/2000/svg" viewBox="0 0 308.22 213.82"><defs><style>.cls-1{font-size:72px;font-family:ArialMT, Arial;}.cls-2{fill:#f7ff23;}.cls-3{fill:#ff0;stroke:#000;stroke-miterlimit:10;}</style></defs><title>pepemed_new</title><text class="cls-1" transform="translate(0 190.45)">Pepe<tspan class="cls-2" x="168.15" y="0">Med</tspan></text><polygon class="cls-3" points="157.98 59.45 144.4 74.08 129.34 70.25 123.24 50.61 137.6 35.36 153.23 39.33 157.98 59.45"/><polygon class="cls-3" points="129.23 70.58 116.69 86.12 101.4 83.34 93.96 64.17 107.23 47.96 123.1 50.84 129.23 70.58"/><polygon class="cls-3" points="178.42 82.73 164.83 97.36 149.78 93.53 143.67 73.89 158.03 58.64 173.67 62.62 178.42 82.73"/><polygon class="cls-3" points="137.36 35.67 123.45 51.22 107.49 47.55 100.52 27.21 115.23 11 131.81 14.81 137.36 35.67"/><polygon class="cls-3" points="187.07 47.94 173.48 62.57 158.43 58.74 152.32 39.1 166.68 23.84 182.32 27.82 187.07 47.94"/><polygon class="cls-3" points="149.91 93.57 136.98 108.78 121.77 105.62 114.8 86.28 128.47 70.4 144.27 73.68 149.91 93.57"/><polygon class="cls-3" points="166.61 24.65 153.02 39.28 137.97 35.45 131.87 15.81 146.22 0.56 161.86 4.53 166.61 24.65"/><polygon class="cls-3" points="198.99 106.87 185.4 121.5 170.35 117.67 164.24 98.03 178.6 82.78 194.24 86.75 198.99 106.87"/><polygon class="cls-3" points="208.02 71.35 194.44 85.98 179.38 82.15 173.28 62.52 187.64 47.26 203.27 51.24 208.02 71.35"/></svg>