<svg xmlns="http://www.w3.org/2000/svg" viewBox="0 0 419.51 301.27"><defs><style>.cls-1{font-size:98px;font-family:ArialMT, Arial;}.cls-2{fill:#f7ff23;}.cls-3{fill:#ff0;}.cls-3,.cls-4,.cls-5{stroke:#000;stroke-miterlimit:10;}.cls-5{fill:#ffe300;}</style></defs><title>pepemed_new_logo</title><g id="Vrstva_1" data-name="Vrstva 1"><text class="cls-1" transform="translate(0 269.45)">Pepe<tspan class="cls-2" x="228.87" y="0">Med</tspan></text></g><g id="bee_logo"><polygon class="cls-3" points="232.62 90.12 211.96 112.38 189.06 106.55 179.77 76.68 201.61 53.48 225.39 59.53 232.62 90.12"/><polygon class="cls-3" points="188.88 107.06 169.81 130.69 146.56 126.46 135.24 97.31 155.42 72.65 179.56 77.04 188.88 107.06"/><polygon class="cls-3" points="263.7 125.53 243.04 147.79 220.14 141.96 210.85 112.09 232.7 88.89 256.48 94.94 263.7 125.53"/><polygon class="cls-3" points="201.25 53.96 180.1 77.61 155.82 72.03 145.22 41.1 167.6 16.44 192.81 22.23 201.25 53.96"/><polygon class="cls-3" points="276.85 72.62 256.19 94.87 233.29 89.05 224.01 59.18 245.85 35.98 269.63 42.02 276.85 72.62"/><polygon class="cls-3" points="220.33 142.02 200.67 165.16 177.54 160.35 166.94 130.93 187.74 106.78 211.76 111.77 220.33 142.02"/><polygon class="cls-3" points="245.74 37.2 225.08 59.45 202.18 53.63 192.89 23.76 214.74 0.56 238.52 6.61 245.74 37.2"/><polygon class="cls-3" points="294.99 162.25 274.32 184.5 251.42 178.68 242.14 148.81 263.98 125.61 287.76 131.65 294.99 162.25"/><polygon class="cls-3" points="308.72 108.23 288.06 130.48 265.16 124.66 255.88 94.79 277.72 71.59 301.5 77.64 308.72 108.23"/><ellipse class="cls-4" cx="258.88" cy="191.71" rx="36.91" ry="36.37" transform="translate(-166.64 188.89) rotate(-49.18)"/><path class="cls-5" d="M311.28,157.4a3.83,3.83,0,1,0-5.8-5,4,4,0,0,0-.92,2.06l-8.05,3.23,1.31,3.38,8-3.22A3.87,3.87,0,0,0,311.28,157.4Z" transform="translate(-111.22 -73.44)"/><path class="cls-5" d="M287.09,150.27l1.89-8.56a3.76,3.76,0,0,0,1.92-1.19,4,4,0,1,0-5.57.33l-1.88,8.52Z" transform="translate(-111.22 -73.44)"/><ellipse class="cls-4" cx="284.36" cy="163.67" rx="15.54" ry="15.31" transform="translate(-136.59 198.46) rotate(-49.18)"/><path class="cls-5" d="M283,163.78a36.39,36.39,0,0,0-40.81-4.45l51.15,44.18A36.37,36.37,0,0,0,283,163.78Z" transform="translate(-111.22 -73.44)"/><path class="cls-5" d="M289.84,210.75l-54.3-46.9a37.55,37.55,0,0,0-4.19,4.09A38.24,38.24,0,0,0,229,171l54.74,47.28a34.62,34.62,0,0,0,6.13-7.54Z" transform="translate(-111.22 -73.44)"/><path class="cls-5" d="M228.7,212.9,227.1,229l16-4a36.69,36.69,0,0,0,34.28-1.93L225.16,178A36.67,36.67,0,0,0,228.7,212.9Z" transform="translate(-111.22 -73.44)"/></g></svg>