<svg width="46" height="45" viewBox="0 0 46 45" fill="none" xmlns="http://www.w3.org/2000/svg">
<path d="M6.67962 8.65371L11.6262 3.70711C12.0168 3.31658 12.6499 3.31658 13.0404 3.70711L20.9596 11.6262C21.3501 12.0168 21.3501 12.6499 20.9596 13.0404L17.5097 16.4903C17.2053 16.7947 17.1298 17.2597 17.3223 17.6447L18.238 19.4761C20.4636 23.9272 24.0728 27.5364 28.5239 29.762L30.3553 30.6777C30.7403 30.8702 31.2053 30.7947 31.5097 30.4903L34.9596 27.0404C35.3501 26.6499 35.9832 26.6499 36.3738 27.0404L44.2929 34.9596C44.6834 35.3501 44.6834 35.9832 44.2929 36.3738L39.3463 41.3204C37.2349 43.4317 33.8924 43.6693 31.5036 41.8777L19.6286 32.9714C17.885 31.6638 16.3362 30.115 15.0286 28.3714L6.12226 16.4964C4.33072 14.1076 4.56827 10.7651 6.67962 8.65371Z" stroke="black" stroke-width="2"/>
</svg>
